Coordinates
version=1
nRows=21
nColumns=22
inDegrees=yes

Units are S.I. units (second, meters, Newtons, ...)
If the header above contains a line with 'inDegrees', this indicates whether rotational values are in degrees (yes) or radians (no).

endheader
time	pelvis_tilt	pelvis_list	pelvis_rotation	pelvis_tx	pelvis_ty	pelvis_tz	hip_flexion_r	hip_adduction_r	hip_rotation_r	knee_angle_r	ankle_angle_r	subtalar_angle_r	hip_flexion_l	hip_adduction_l	hip_rotation_l	knee_angle_l	ankle_angle_l	subtalar_angle_l	lumbar_extension	lumbar_bending	lumbar_rotation
      2.62000000	     -5.83959356	      1.58673238	    -45.36060435	      0.17044334	      0.87090740	      0.29701474	     18.66514396	     -3.29425532	      4.17680718	    -70.52310992	     -3.37616263	      5.75839702	     21.19146567	     -3.70674768	     -2.25456928	    -27.39840273	     15.57470554	      1.18396201	     -1.68297394	     -0.50755111	     16.21630870
      2.63000000	     -5.87806301	      1.26538423	    -44.65110966	      0.17944868	      0.87268442	      0.30061322	     19.92491136	     -2.95016415	      3.36200169	    -71.16430304	     -2.49699082	      5.85778372	     20.02990472	     -3.53328246	     -1.75013840	    -26.64453313	     15.85993857	      1.12274747	     -1.91616294	     -0.15382098	     15.26078281
      2.64000000	     -5.91010893	      0.92916419	    -43.89599325	      0.18840543	      0.87440446	      0.30418361	     21.10058188	     -2.61584645	      2.50554264	    -71.52698817	     -1.74639678	      6.06471411	     18.84908332	     -3.38127991	     -1.17875397	    -25.85979110	     16.11470211	      1.04668595	     -2.15255905	      0.21164744	     14.25012576
      2.65000000	     -5.94003881	      0.58621423	    -43.11922275	      0.19730367	      0.87603588	      0.30777207	     22.19596938	     -2.29825205	      1.61927103	    -71.61137352	     -1.02359228	      6.43246097	     17.66399536	     -3.26596600	     -0.60393529	    -25.06414696	     16.36563271	      0.94532748	     -2.37611911	      0.58282327	     13.24044153
      2.66000000	     -5.98405109	      0.27966516	    -42.31580957	      0.20611347	      0.87749116	      0.31132512	     23.27295158	     -2.01570884	      0.71946862	    -71.44547062	     -0.35872220	      6.68800759	     16.52978487	     -3.15776630	      0.01774414	    -24.27048514	     16.58322344	      0.91983622	     -2.54621871	      0.94107386	     12.18815319
      2.67000000	     -6.02875084	     -0.02039386	    -41.51035788	      0.21481498	      0.87881860	      0.31491845	     24.28601357	     -1.74018561	     -0.16281007	    -71.01863810	      0.31794558	      6.97590956	     15.41186149	     -3.08409280	      0.64612509	    -23.48768784	     16.79197053	      0.89376689	     -2.69593901	      1.29262599	     11.13696205
      2.68000000	     -6.07319710	     -0.31428815	    -40.71934939	      0.22342163	      0.88002199	      0.31854310	     25.23427430	     -1.46714564	     -1.00110621	    -70.33340790	      0.98293428	      7.31823088	     14.29939009	     -3.04308685	      1.27514540	    -22.70109315	     16.99132377	      0.86586186	     -2.82741536	      1.64425862	     10.12106581
      2.69000000	     -6.11823253	     -0.56652143	    -39.95265253	      0.23185581	      0.88103390	      0.32223769	     26.15619040	     -1.20315013	     -1.75585307	    -69.42212061	      1.66133225	      7.59138740	     13.22970496	     -3.01242623	      1.89405325	    -21.93380131	     17.17939477	      0.86128254	     -2.92003632	      1.95320168	      9.10878740
      2.70000000	     -6.16301162	     -0.79090072	    -39.22002922	      0.24016305	      0.88187019	      0.32599374	     27.03533070	     -0.95674507	     -2.44447930	    -68.28571152	      2.33709815	      7.83638491	     12.18702540	     -3.00010171	      2.46715308	    -21.17954527	     17.35405280	      0.86534347	     -2.98645656	      2.23881345	      8.14977460
      2.71000000	     -6.18120832	     -1.02186097	    -38.56308679	      0.24831476	      0.88262486	      0.32989907	     27.81830844	     -0.67337355	     -2.99092150	    -66.91008208	      2.90802273	      8.21629592	     11.09294274	     -3.02258691	      2.99623716	    -20.39601689	     17.55417041	      0.85708924	     -3.07726630	      2.50704606	      7.27081081
      2.72000000	     -6.21851299	     -1.17222535	    -37.92870222	      0.25631593	      0.88309316	      0.33384876	     28.61613379	     -0.43828725	     -3.45596483	    -65.35030055	      3.48364398	      8.44594716	     10.09767066	     -3.02337157	      3.48078023	    -19.65781370	     17.73146994	      0.86719153	     -3.09496424	      2.71245690	      6.40681111
      2.73000000	     -6.23581614	     -1.31454888	    -37.36236201	      0.26419472	      0.88343783	      0.33794878	     29.32845632	     -0.19302371	     -3.80567821	    -63.57977757	      3.95194152	      8.72407057	      9.07383313	     -3.04239007	      3.91299741	    -18.90743181	     17.92745538	      0.86812162	     -3.12583813	      2.88969819	      5.62015584
      2.74000000	     -6.24151883	     -1.42020773	    -36.85109623	      0.27195994	      0.88360436	      0.34216400	     29.98421052	      0.03619685	     -4.04725709	    -61.62238253	      4.34338425	      9.01887356	      8.06131355	     -3.05279961	      4.29161469	    -18.16396696	     18.12916119	      0.86050590	     -3.14487471	      3.02148376	      4.90224061
      2.75000000	     -6.24522100	     -1.48297074	    -36.38262883	      0.27963969	      0.88357931	      0.34646474	     30.58625104	      0.23902344	     -4.19468825	    -59.47611395	      4.66394905	      9.29367592	      7.07911805	     -3.04833730	      4.63420921	    -17.43911553	     18.32856567	      0.84387944	     -3.14026871	      3.11093305	      4.23889177
      2.76000000	     -6.23449876	     -1.51667601	    -35.94967711	      0.28726617	      0.88338962	      0.35085486	     31.10896973	      0.40759524	     -4.27611631	    -57.14615256	      4.90095574	      9.56668179	      6.10494030	     -3.02928657	      4.93963951	    -16.73133715	     18.54200608	      0.81014901	     -3.13155896	      3.16071344	      3.62381069
      2.77000000	     -6.22235229	     -1.50610883	    -35.54381070	      0.29484580	      0.88300634	      0.35530850	     31.56945173	      0.53216951	     -4.30132337	    -54.63803140	      5.06608390	      9.79773995	      5.17045126	     -2.98407804	      5.22855318	    -16.05867130	     18.75378248	      0.76382875	     -3.09948338	      3.16913890	      3.04437473
      2.78000000	     -6.20071994	     -1.46344692	    -35.14839066	      0.30241481	      0.88244206	      0.35978611	     31.95058794	      0.60452427	     -4.29064169	    -51.96071509	      5.15613033	      9.99572738	      4.25845306	     -2.91373944	      5.50835494	    -15.41230494	     18.97643626	      0.70048528	     -3.06009784	      3.14405625	      2.49413569
      2.79000000	     -6.17095378	     -1.38016812	    -34.76580945	      0.31000365	      0.88169008	      0.36429157	     32.25617806	      0.61202067	     -4.26175598	    -49.12269141	      5.17021365	     10.14810297	      3.37747078	     -2.80881265	      5.78468101	    -14.80340337	     19.20503408	      0.62360968	     -3.00278327	      3.08259669	      1.96944680
      2.80000000	     -6.12552499	     -1.26197286	    -34.38674058	      0.31763545	      0.88075967	      0.36880745	     32.47737905	      0.54861497	     -4.23546011	    -46.13606324	      5.10751763	     10.25235993	      2.51723637	     -2.66697845	      6.05999131	    -14.23156865	     19.44599617	      0.53279764	     -2.93931794	      2.98502734	      1.46532573
      2.81000000	     -6.07701467	     -1.10275989	    -34.01268509	      0.32535145	      0.87962823	      0.37335706	     32.63622389	      0.40978960	     -4.24613933	    -43.02879673	      4.96309414	     10.29619906	      1.67707515	     -2.49315323	      6.33091557	    -13.67188887	     19.68508367	      0.44037293	     -2.84744228	      2.85600712	      0.96755962
      2.82000000	     -5.97959904	     -0.92426055	    -33.64611020	      0.33314506	      0.87836858	      0.37790857	     32.67560665	      0.20199404	     -4.27184052	    -39.79836732	      4.78034284	     10.28004097	      0.82546437	     -2.27228600	      6.60657941	    -13.17354995	     19.96042884	      0.31799705	     -2.79454269	      2.68619788	      0.51454054
